<?xml version="1.0" encoding="utf-8"?>
<!-- Generator: Adobe Illustrator 24.0.2, SVG Export Plug-In . SVG Version: 6.00 Build 0)  -->
<svg version="1.1" id="Layer_1" xmlns="http://www.w3.org/2000/svg" xmlns:xlink="http://www.w3.org/1999/xlink" x="0px" y="0px"
	 viewBox="0 0 1142.4 339.4" style="enable-background:new 0 0 1142.4 339.4;" xml:space="preserve">
<style type="text/css">
	.st0{fill:#1DA1F2;}
	.st1{fill:#505761;}
</style>
<g>
	<g>
		<g>
			<path class="st0" d="M150.7,209.4c-17,16.8-39,24.6-62.9,24.6C26.3,234,0.3,191.7,0,148.6c-0.2-43.3,27.9-87.3,87.8-87.3
				c22.5,0,43.8,8.5,60.8,25.3l-20.8,20.1c-10.9-10.7-25.6-15.6-40-15.6c-40,0-57.2,29.8-57,57.5c0.2,27.4,16.1,56.1,57,56.1
				c14.4,0,30.8-5.9,41.6-16.8L150.7,209.4z"/>
			<path class="st0" d="M341.9,199h-86.6l-14.2,31.2h-33.8l74.3-165.6h34.1l74.3,165.6h-34.1L341.9,199z M298.6,99.4l-30.8,70.5
				h61.5L298.6,99.4z"/>
			<path class="st0" d="M567.1,104.6c-5.7-9.5-21.3-18.5-39.3-18.5c-23.2,0-34.3,9.7-34.3,22c0,14.4,17,18.5,36.9,20.8
				c34.5,4.3,66.7,13.2,66.7,52.8c0,36.9-32.7,52.8-69.6,52.8c-33.8,0-59.9-10.4-72.2-40.7l26-13.5c7.3,18.2,26.5,26.3,46.6,26.3
				c19.6,0,38.1-6.9,38.1-24.8c0-15.6-16.3-22-38.3-24.4c-33.8-4-65.1-13-65.1-50.2c0-34.1,33.6-48,64.1-48.3
				c25.8,0,52.5,7.3,65.1,32.9L567.1,104.6z"/>
			<path class="st0" d="M797.5,230.5v-67h-81.4v67h-31.2V64.9h31.2v69.8h81.4V64.9h31v165.6H797.5z"/>
		</g>
		<g>
			<path class="st1" d="M1015.9,196.8c-13.5,22.5-26.1,43.4-38.5,64.3c-11.6,19.6-23,39.3-34.9,58.7c-1.6,2.6-6,5.1-9.1,5.1
				c-44.2,0.3-88.4,0.3-132.6,0.2c-9,0-12.6-3.9-12.7-12.9c-0.1-5.1-0.1-10.2,0-15.3c0.1-7.9,3.7-11.5,11.6-11.5
				c26.5-0.1,52.9,0,79.4,0c12.6,0,25.2,0.4,37.8-0.4c3.2-0.2,7.3-3.5,9.2-6.5c15.2-23.9,30-48.1,44.9-72.2
				c7.5-12.1,15.3-24.2,22.5-36.5c1.2-2.1,1.3-6.2,0-8.1c-25.2-38.2-50.8-76.2-76.1-114.4c-3.2-4.8-6.7-6.6-12.5-6.6
				c-34.5,0.3-69,0.2-103.5,0.2c-9.6,0-13.5-4.2-13.6-13.9c0-4.6-0.1-9.2,0-13.8c0.1-8.3,4.2-12.6,12.6-12.7c13.8-0.1,27.7,0,41.5,0
				c26-0.1,52,0.1,78-0.5c7-0.1,11.1,2.2,14.8,7.9c13.9,21.6,28.2,42.9,42.4,64.3c13.4,20.2,26.7,40.4,40.1,60.6
				c0.4,0.6,1.1,0.8,2.8,2c19-31.1,37.8-62.1,57.4-94.2c-13.3,0-24.5,0-35.8,0c-13.1,0-15.9-2.8-15.9-15.7c0-3.6,0-7.3,0-10.9
				c0-10.6,3.2-13.8,14-13.8c23.1,0,46.1,0,69.2,0c9.2,0,18.5-0.2,27.7-0.2c1.6,0,3.2,0.4,5.9,0.8c-1.3,2.8-2.1,5-3.2,6.9
				c-32.1,51.1-64.1,102.2-96.5,153.1c-2.9,4.5-2.6,7.6,0.1,11.8c18,27.8,35.9,55.8,53.8,83.7c13.5,21,27,41.9,40.5,62.9
				c0.8,1.3,1.6,3.4,1,4.5c-0.5,1-2.8,1.6-4.3,1.6c-27,0-53.9,0-80.9-0.2c-7,0-11.3-4.1-11.6-11.1c-0.2-5.8-0.2-11.7,0-17.5
				c0.2-6.5,3.5-10.7,10-11.2c6.4-0.5,12.8-0.1,21.2-0.1C1053,254.8,1034.7,226.3,1015.9,196.8z"/>
			<path class="st0" d="M734.6,287.3c9.9,0,19.9-0.1,29.8,0c8.5,0.1,12.2,3.4,12.6,11.7c0.3,6,0.2,12.1-0.3,18.1
				c-0.5,6.9-4.8,10.4-11.6,10.4c-20.8,0.1-41.7,0.2-62.5-0.1c-7.6-0.1-10.9-3.8-11-11.4c-0.1-5.6,0-11.2,0-16.7
				c0.1-8.7,2.9-11.8,11.7-12C713.7,287.2,724.2,287.3,734.6,287.3C734.6,287.3,734.6,287.3,734.6,287.3z"/>
			<path class="st0" d="M744.1,40.9c-7,0-14,0.2-21.1-0.1c-7.5-0.3-10.9-3.9-11.1-11.4c-0.1-6,0.1-12.1,0-18.2
				c-0.1-6.9,3.5-10.6,10-10.7c15.2-0.3,30.5-0.3,45.7,0c6.5,0.1,10.2,3.8,9.9,10.7c-0.2,6,0,12.1-0.1,18.2
				c-0.1,7.5-3.5,11.1-11,11.4C759.1,41.1,751.6,40.9,744.1,40.9z"/>
			<path class="st0" d="M998,0.2c20,0,20.9,0.9,21.1,20.8c0,2.4,0.2,4.9,0.1,7.3c-0.6,8.8-4.1,12.2-12.8,12.4
				c-6.3,0.2-12.6,0.3-18.9,0c-8.2-0.4-11.6-4.2-11.7-12.4c0-5.1,0-10.2,0-15.3c0.1-9.2,3.5-12.6,12.8-12.7
				C991.7,0.2,994.9,0.2,998,0.2z"/>
			<path class="st0" d="M1031.5,307.4c0,18.9-1.2,20.1-20.2,20.1c-2.7,0-5.3,0.1-8,0c-7-0.2-10.8-4.1-11.2-10.8
				c-0.4-6.5-0.3-13.1,0.2-19.6c0.4-6.2,4.2-9.6,10.5-9.8c5.8-0.1,11.6-0.2,17.4,0c7.8,0.4,11.1,4.1,11.3,12.1
				C1031.6,302.1,1031.5,304.7,1031.5,307.4z"/>
		</g>
	</g>
	<g>
		<g>
			<g>
				<g>
					<path class="st1" d="M62.4,269.4h12.9v68.5h-8v0.1l-35.9-46.2v46.1H18.4v-68.4h10.4l33.5,42.4V269.4z"/>
				</g>
			</g>
			<g>
				<g>
					<path class="st1" d="M164.3,337.9h-51.2c0-22.8,0-45.6,0-68.4h51.2V282h-38.4v15.7h37v12h-37v15.4h38.4V337.9z"/>
				</g>
			</g>
			<g>
				<g>
					<path class="st1" d="M222.1,281.2h-21.7v-11.7c19.7,0,36.4,0,56.3,0v11.7H235v56.7h-12.9L222.1,281.2L222.1,281.2z"/>
				</g>
			</g>
			<g>
				<g>
					<path class="st1" d="M367.6,337.9h-10.9l-8.5-21.5l-7.2-21.6l-7.1,21.8l-8.3,21.3h-10.9l-25.1-68.4H304l16.1,49.3l16.6-49.3
						h8.4l17.1,49.3l15.6-49.3h14.5L367.6,337.9z"/>
				</g>
			</g>
			<g>
				<g>
					<path class="st1" d="M493.6,304.1c-0.2,17.7-11,35.4-35.1,35.4c-24,0-35.2-17.3-35.2-35.3c0-18,11.5-36,35.2-36
						C482,268.1,493.8,286.2,493.6,304.1z M436,304.3c0.3,11.2,6.3,23.2,22.5,23.2s22.2-12.1,22.4-23.4c0.2-11.5-6.2-24.4-22.4-24.4
						S435.7,292.8,436,304.3z"/>
				</g>
			</g>
			<g>
				<g>
					<path class="st1" d="M589.9,337.9h-15.3L554.6,315h-12.4v22.9h-12.9v-68.5c10.8,0,21.7,0.1,32.5,0.1
						c16.1,0.1,24.6,10.8,24.6,22.7c0,9.4-4.3,18.9-17.3,21.5l20.7,23.4L589.9,337.9L589.9,337.9z M542.2,281.5v21.9h19.6
						c8.2,0,11.7-5.5,11.7-10.9c0-5.5-3.6-10.9-11.7-10.9L542.2,281.5L542.2,281.5z"/>
				</g>
			</g>
			<g>
				<g>
					<path class="st1" d="M676.2,269.9l-30.4,32.7l32.9,34.5v0.8h-15.9l-28.6-30.3v30.3h-12.9v-68.4h12.9v28.9l26-28.9h16V269.9z"/>
				</g>
			</g>
		</g>
	</g>
</g>
</svg>
