<svg width="205" height="190" viewBox="0 0 205 190" fill="none" xmlns="http://www.w3.org/2000/svg">
<path d="M131.806 113.652C124.007 126.645 116.727 138.715 109.564 150.784C102.862 162.103 96.2757 173.48 89.4007 184.683C88.4763 186.184 85.9343 187.628 84.1433 187.628C58.6076 187.801 33.0719 187.801 7.53618 187.744C2.3366 187.744 0.256762 185.492 0.198989 180.294C0.141216 177.349 0.141216 174.404 0.198989 171.458C0.256762 166.896 2.33662 164.817 6.90069 164.817C22.2106 164.76 37.4626 164.817 52.7725 164.817C60.0519 164.817 67.3314 165.048 74.6108 164.586C76.4595 164.471 78.8282 162.565 79.9259 160.833C88.7074 147.031 97.2578 133.055 105.866 119.138C110.199 112.15 114.705 105.163 118.865 98.0596C119.558 96.8468 119.616 94.4791 118.865 93.3819C104.306 71.3218 89.5162 49.3772 74.8996 27.3171C73.0509 24.5451 71.0288 23.5056 67.678 23.5056C47.7463 23.6789 27.8146 23.6211 7.88284 23.6211C2.33662 23.6211 0.08345 21.1957 0.0256769 15.594C0.0256769 12.9376 -0.0320962 10.2811 0.0256769 7.62466C0.08345 2.8315 2.45217 0.348293 7.30511 0.290544C15.2778 0.232795 23.3083 0.290544 31.2809 0.290544C46.302 0.232795 61.323 0.348293 76.344 0.00179947C80.3881 -0.0559495 82.7568 1.27228 84.8944 4.56397C92.9248 17.0377 101.186 29.3383 109.39 41.6966C117.132 53.3618 124.816 65.0271 132.557 76.6924C132.788 77.0389 133.193 77.1544 134.175 77.8474C145.152 59.8875 156.013 41.9853 167.337 23.4479C159.653 23.4479 153.182 23.4479 146.654 23.4479C139.086 23.4479 137.468 21.8309 137.468 14.3813C137.468 12.3023 137.468 10.1656 137.468 8.08666C137.468 1.96526 139.317 0.117297 145.556 0.117297C158.902 0.117297 172.19 0.117297 185.535 0.117297C190.85 0.117297 196.223 0.00179947 201.538 0.00179947C202.463 0.00179947 203.387 0.232795 204.947 0.463791C204.196 2.08076 203.734 3.35124 203.098 4.44847C184.553 33.9582 166.066 63.4679 147.347 92.8621C145.672 95.4609 145.845 97.2511 147.405 99.6765C157.804 115.731 168.145 131.9 178.487 148.012C186.286 160.14 194.086 172.209 201.885 184.337C202.347 185.087 202.809 186.3 202.463 186.935C202.174 187.513 200.845 187.859 199.978 187.859C184.38 187.859 168.839 187.859 153.24 187.744C149.196 187.744 146.712 185.376 146.538 181.334C146.423 177.984 146.423 174.577 146.538 171.228C146.654 167.474 148.56 165.048 152.316 164.76C156.013 164.471 159.711 164.702 164.563 164.702C153.24 147.146 142.668 130.688 131.806 113.652Z" fill="#505761"/>
<path d="M121.465 0.11731C133.019 0.11731 133.539 0.63705 133.655 12.1291C133.655 13.5151 133.77 14.9588 133.713 16.3448C133.366 21.4267 131.344 23.3901 126.318 23.5056C122.678 23.6211 119.038 23.6789 115.399 23.5056C110.661 23.2746 108.697 21.0802 108.639 16.3448C108.639 13.3996 108.639 10.4544 108.639 7.50918C108.697 2.19627 110.661 0.232808 116.034 0.175059C117.825 0.11731 119.674 0.11731 121.465 0.11731Z" fill="#1DA1F2"/>
<path d="M140.819 177.522C140.819 188.437 140.125 189.13 129.149 189.13C127.589 189.13 126.087 189.187 124.527 189.13C120.483 189.014 118.287 186.762 118.056 182.893C117.825 179.139 117.883 175.328 118.172 171.574C118.403 167.994 120.598 166.03 124.238 165.915C127.589 165.857 130.94 165.799 134.29 165.915C138.797 166.146 140.703 168.282 140.819 172.902C140.876 174.461 140.819 175.963 140.819 177.522Z" fill="#1DA1F2"/>
<path d="M87.0647 130.526C77.2433 140.228 64.5332 144.732 50.7254 144.732C15.1949 144.732 0.173932 120.305 0.000612347 95.4149C-0.114934 70.4095 16.1193 45 50.7254 45C63.7244 45 76.03 49.9087 85.8514 59.6105L73.8346 71.218C67.5374 65.0389 59.0447 62.2092 50.7254 62.2092C27.6162 62.2092 17.6792 79.4184 17.7947 95.4149C17.9103 111.238 27.0962 127.812 50.7254 127.812C59.0447 127.812 68.5195 124.405 74.759 118.11L87.0647 130.526Z" fill="#1DA1F2"/>
</svg>
